; Drill file
; Format: 2.4 (00.0000)
M48
INCH
T01C0.031
T02C0.118
%
G05
G90
T01
X003190Y015370
X004190Y015370
X005190Y015370
X005190Y012370
X004190Y012370
X003190Y012370
X005780Y004460
X005780Y003460
X005780Y002460
X012090Y015250
X013090Y015250
X014090Y015250
X013650Y011410
X011680Y011410
X011660Y002620
X013630Y002620
X015590Y002620
X017560Y002620
X004180Y018390
X003180Y018390
X008870Y010030
X007500Y010030
X011620Y007460
X013620Y007460
X017550Y005460
X015580Y005460
X003130Y003460
X003130Y004460
T02
X001250Y001280
X001160Y018530
X018440Y009840
M30
