; Drill file
; Format: 3.3 (000.000)
M48
METRIC
T01C0.8
T02C3
%
G05
G90
T01
X008090Y039040
X010630Y039050
X013170Y039050
X013170Y031430
X010630Y031430
X008090Y031420
X014680Y011340
X014680Y008800
X014680Y006260
X030720Y038730
X033260Y038730
X035800Y038730
X034660Y028970
X029660Y028970
X029610Y006660
X034610Y006660
X039610Y006660
X044610Y006660
X010620Y046700
X008080Y046700
X022540Y025470
X019040Y025470
X029520Y018950
X034600Y018950
X044580Y013860
X039580Y013860
X007940Y008800
X007940Y011340
T02
X003180Y003250
X002940Y047060
X046830Y025000
M30
