%FSLAX32Y32*%
%MOMM*%
%LNLOETSTOP1*%
G71*
G01*
%ADD10C, 2.00*%
%ADD11C, 0.20*%
%ADD12C, 2.60*%
%ADD13C, 2.60*%
%ADD14C, 3.04*%
%ADD15C, 2.40*%
%ADD16C, 4.10*%
%LPD*%
G54D10*
X809Y3974D02*
X809Y3834D01*
G54D10*
X1063Y3975D02*
X1063Y3835D01*
G54D10*
X1317Y3975D02*
X1317Y3835D01*
G54D10*
X1317Y3213D02*
X1317Y3073D01*
G54D10*
X1063Y3213D02*
X1063Y3073D01*
G54D10*
X809Y3212D02*
X809Y3072D01*
G36*
X376Y2626D02*
X396Y2646D01*
X496Y2646D01*
X506Y2636D01*
X506Y2456D01*
X496Y2446D01*
X396Y2446D01*
X376Y2466D01*
X376Y2626D01*
G37*
G54D11*
X376Y2626D02*
X396Y2646D01*
X496Y2646D01*
X506Y2636D01*
X506Y2456D01*
X496Y2446D01*
X396Y2446D01*
X376Y2466D01*
X376Y2626D01*
G36*
X746Y2636D02*
X756Y2646D01*
X856Y2646D01*
X876Y2626D01*
X876Y2466D01*
X856Y2446D01*
X756Y2446D01*
X746Y2456D01*
X746Y2636D01*
G37*
G54D11*
X746Y2636D02*
X756Y2646D01*
X856Y2646D01*
X876Y2626D01*
X876Y2466D01*
X856Y2446D01*
X756Y2446D01*
X746Y2456D01*
X746Y2636D01*
G36*
X391Y2603D02*
X511Y2603D01*
X511Y2483D01*
X391Y2483D01*
X391Y2603D01*
G37*
G36*
X741Y2603D02*
X861Y2603D01*
X861Y2483D01*
X741Y2483D01*
X741Y2603D01*
G37*
G36*
X2329Y3721D02*
X2329Y3801D01*
X2449Y3801D01*
X2449Y3721D01*
X2329Y3721D01*
G37*
G36*
X2329Y3911D02*
X2329Y3991D01*
X2449Y3991D01*
X2449Y3911D01*
X2329Y3911D01*
G37*
G36*
X2567Y3721D02*
X2567Y3801D01*
X2687Y3801D01*
X2687Y3721D01*
X2567Y3721D01*
G37*
G36*
X2567Y3911D02*
X2567Y3991D01*
X2687Y3991D01*
X2687Y3911D01*
X2567Y3911D01*
G37*
G36*
X2567Y3816D02*
X2567Y3896D01*
X2687Y3896D01*
X2687Y3816D01*
X2567Y3816D01*
G37*
G54D12*
X1368Y1134D02*
X1568Y1134D01*
G54D12*
X1368Y880D02*
X1568Y880D01*
G54D12*
X1368Y626D02*
X1568Y626D01*
X3072Y3873D02*
G54D13*
D03*
X3326Y3873D02*
G54D13*
D03*
X3580Y3873D02*
G54D13*
D03*
X3466Y2897D02*
G54D13*
D03*
X2966Y2897D02*
G54D13*
D03*
X2961Y666D02*
G54D14*
D03*
X3461Y666D02*
G54D14*
D03*
X3961Y666D02*
G54D14*
D03*
X4461Y666D02*
G54D14*
D03*
G54D15*
X1062Y4580D02*
X1062Y4760D01*
G54D15*
X808Y4580D02*
X808Y4760D01*
G36*
X3271Y4514D02*
X3251Y4494D01*
X3161Y4494D01*
X3151Y4504D01*
X3151Y4664D01*
X3161Y4674D01*
X3251Y4674D01*
X3271Y4654D01*
X3271Y4514D01*
G37*
G54D11*
X3271Y4514D02*
X3251Y4494D01*
X3161Y4494D01*
X3151Y4504D01*
X3151Y4664D01*
X3161Y4674D01*
X3251Y4674D01*
X3271Y4654D01*
X3271Y4514D01*
G36*
X2961Y4509D02*
X2961Y4504D01*
X2951Y4494D01*
X2861Y4494D01*
X2841Y4514D01*
X2841Y4654D01*
X2861Y4674D01*
X2951Y4674D01*
X2961Y4664D01*
X2961Y4509D01*
G37*
G54D11*
X2961Y4509D02*
X2961Y4504D01*
X2951Y4494D01*
X2861Y4494D01*
X2841Y4514D01*
X2841Y4654D01*
X2861Y4674D01*
X2951Y4674D01*
X2961Y4664D01*
X2961Y4509D01*
G36*
X3266Y4529D02*
X3166Y4529D01*
X3166Y4639D01*
X3266Y4639D01*
X3266Y4529D01*
G37*
G36*
X2946Y4524D02*
X2846Y4524D01*
X2846Y4634D01*
X2946Y4634D01*
X2946Y4524D01*
G37*
G36*
X758Y4119D02*
X738Y4139D01*
X738Y4209D01*
X748Y4219D01*
X868Y4219D01*
X878Y4209D01*
X878Y4139D01*
X858Y4119D01*
X758Y4119D01*
G37*
G54D11*
X758Y4119D02*
X738Y4139D01*
X738Y4209D01*
X748Y4219D01*
X868Y4219D01*
X878Y4209D01*
X878Y4139D01*
X858Y4119D01*
X758Y4119D01*
G36*
X748Y4319D02*
X738Y4329D01*
X738Y4399D01*
X758Y4419D01*
X858Y4419D01*
X878Y4399D01*
X878Y4329D01*
X868Y4319D01*
X748Y4319D01*
G37*
G54D11*
X748Y4319D02*
X738Y4329D01*
X738Y4399D01*
X758Y4419D01*
X858Y4419D01*
X878Y4399D01*
X878Y4329D01*
X868Y4319D01*
X748Y4319D01*
G36*
X773Y4135D02*
X773Y4205D01*
X843Y4205D01*
X843Y4135D01*
X773Y4135D01*
G37*
G36*
X773Y4335D02*
X773Y4405D01*
X843Y4405D01*
X843Y4335D01*
X773Y4335D01*
G37*
G36*
X684Y3093D02*
X664Y3073D01*
X594Y3073D01*
X584Y3083D01*
X584Y3203D01*
X594Y3213D01*
X664Y3213D01*
X684Y3193D01*
X684Y3093D01*
G37*
G54D11*
X684Y3093D02*
X664Y3073D01*
X594Y3073D01*
X584Y3083D01*
X584Y3203D01*
X594Y3213D01*
X664Y3213D01*
X684Y3193D01*
X684Y3093D01*
G36*
X484Y3083D02*
X474Y3073D01*
X404Y3073D01*
X384Y3093D01*
X384Y3193D01*
X404Y3213D01*
X474Y3213D01*
X484Y3203D01*
X484Y3083D01*
G37*
G54D11*
X484Y3083D02*
X474Y3073D01*
X404Y3073D01*
X384Y3093D01*
X384Y3193D01*
X404Y3213D01*
X474Y3213D01*
X484Y3203D01*
X484Y3083D01*
G36*
X670Y3108D02*
X600Y3108D01*
X600Y3178D01*
X670Y3178D01*
X670Y3108D01*
G37*
G36*
X470Y3108D02*
X400Y3108D01*
X400Y3178D01*
X470Y3178D01*
X470Y3108D01*
G37*
G36*
X1057Y2746D02*
X1037Y2726D01*
X967Y2726D01*
X957Y2736D01*
X957Y2856D01*
X967Y2866D01*
X1037Y2866D01*
X1057Y2846D01*
X1057Y2746D01*
G37*
G54D11*
X1057Y2746D02*
X1037Y2726D01*
X967Y2726D01*
X957Y2736D01*
X957Y2856D01*
X967Y2866D01*
X1037Y2866D01*
X1057Y2846D01*
X1057Y2746D01*
G36*
X857Y2736D02*
X847Y2726D01*
X777Y2726D01*
X757Y2746D01*
X757Y2846D01*
X777Y2866D01*
X847Y2866D01*
X857Y2856D01*
X857Y2736D01*
G37*
G54D11*
X857Y2736D02*
X847Y2726D01*
X777Y2726D01*
X757Y2746D01*
X757Y2846D01*
X777Y2866D01*
X847Y2866D01*
X857Y2856D01*
X857Y2736D01*
G36*
X1042Y2762D02*
X972Y2762D01*
X972Y2832D01*
X1042Y2832D01*
X1042Y2762D01*
G37*
G36*
X842Y2762D02*
X772Y2762D01*
X772Y2832D01*
X842Y2832D01*
X842Y2762D01*
G37*
X2254Y2547D02*
G54D13*
D03*
X1904Y2547D02*
G54D13*
D03*
X2952Y1895D02*
G54D14*
D03*
X3460Y1895D02*
G54D14*
D03*
X4458Y1386D02*
G54D13*
D03*
X3958Y1386D02*
G54D13*
D03*
G36*
X3270Y4260D02*
X3250Y4240D01*
X3160Y4240D01*
X3150Y4250D01*
X3150Y4410D01*
X3160Y4420D01*
X3250Y4420D01*
X3270Y4400D01*
X3270Y4260D01*
G37*
G54D11*
X3270Y4260D02*
X3250Y4240D01*
X3160Y4240D01*
X3150Y4250D01*
X3150Y4410D01*
X3160Y4420D01*
X3250Y4420D01*
X3270Y4400D01*
X3270Y4260D01*
G36*
X2960Y4255D02*
X2960Y4250D01*
X2950Y4240D01*
X2860Y4240D01*
X2840Y4260D01*
X2840Y4400D01*
X2860Y4420D01*
X2950Y4420D01*
X2960Y4410D01*
X2960Y4255D01*
G37*
G54D11*
X2960Y4255D02*
X2960Y4250D01*
X2950Y4240D01*
X2860Y4240D01*
X2840Y4260D01*
X2840Y4400D01*
X2860Y4420D01*
X2950Y4420D01*
X2960Y4410D01*
X2960Y4255D01*
G36*
X3266Y4275D02*
X3166Y4275D01*
X3166Y4385D01*
X3266Y4385D01*
X3266Y4275D01*
G37*
G36*
X2946Y4270D02*
X2846Y4270D01*
X2846Y4380D01*
X2946Y4380D01*
X2946Y4270D01*
G37*
X278Y293D02*
G54D16*
D03*
X278Y4730D02*
G54D16*
D03*
X4731Y2650D02*
G54D16*
D03*
G54D15*
X884Y880D02*
X704Y880D01*
G54D15*
X884Y1134D02*
X704Y1134D01*
G36*
X2255Y368D02*
X2235Y388D01*
X2235Y478D01*
X2245Y488D01*
X2405Y488D01*
X2415Y478D01*
X2415Y388D01*
X2395Y368D01*
X2255Y368D01*
G37*
G54D11*
X2255Y368D02*
X2235Y388D01*
X2235Y478D01*
X2245Y488D01*
X2405Y488D01*
X2415Y478D01*
X2415Y388D01*
X2395Y368D01*
X2255Y368D01*
G36*
X2250Y678D02*
X2245Y678D01*
X2235Y688D01*
X2235Y778D01*
X2255Y798D01*
X2395Y798D01*
X2415Y778D01*
X2415Y688D01*
X2405Y678D01*
X2250Y678D01*
G37*
G54D11*
X2250Y678D02*
X2245Y678D01*
X2235Y688D01*
X2235Y778D01*
X2255Y798D01*
X2395Y798D01*
X2415Y778D01*
X2415Y688D01*
X2405Y678D01*
X2250Y678D01*
G36*
X2270Y373D02*
X2270Y473D01*
X2380Y473D01*
X2380Y373D01*
X2270Y373D01*
G37*
G36*
X2265Y693D02*
X2265Y793D01*
X2375Y793D01*
X2375Y693D01*
X2265Y693D01*
G37*
G36*
X2603Y2839D02*
X2583Y2819D01*
X2493Y2819D01*
X2483Y2829D01*
X2483Y2989D01*
X2493Y2999D01*
X2583Y2999D01*
X2603Y2979D01*
X2603Y2839D01*
G37*
G54D11*
X2603Y2839D02*
X2583Y2819D01*
X2493Y2819D01*
X2483Y2829D01*
X2483Y2989D01*
X2493Y2999D01*
X2583Y2999D01*
X2603Y2979D01*
X2603Y2839D01*
G36*
X2293Y2834D02*
X2293Y2829D01*
X2283Y2819D01*
X2193Y2819D01*
X2173Y2839D01*
X2173Y2979D01*
X2193Y2999D01*
X2283Y2999D01*
X2293Y2989D01*
X2293Y2834D01*
G37*
G54D11*
X2293Y2834D02*
X2293Y2829D01*
X2283Y2819D01*
X2193Y2819D01*
X2173Y2839D01*
X2173Y2979D01*
X2193Y2999D01*
X2283Y2999D01*
X2293Y2989D01*
X2293Y2834D01*
G36*
X2599Y2854D02*
X2499Y2854D01*
X2499Y2964D01*
X2599Y2964D01*
X2599Y2854D01*
G37*
G36*
X2279Y2849D02*
X2179Y2849D01*
X2179Y2959D01*
X2279Y2959D01*
X2279Y2849D01*
G37*
G36*
X3149Y2304D02*
X3169Y2324D01*
X3259Y2324D01*
X3269Y2314D01*
X3269Y2154D01*
X3259Y2144D01*
X3169Y2144D01*
X3149Y2164D01*
X3149Y2304D01*
G37*
G54D11*
X3149Y2304D02*
X3169Y2324D01*
X3259Y2324D01*
X3269Y2314D01*
X3269Y2154D01*
X3259Y2144D01*
X3169Y2144D01*
X3149Y2164D01*
X3149Y2304D01*
G36*
X3459Y2309D02*
X3459Y2314D01*
X3469Y2324D01*
X3559Y2324D01*
X3579Y2304D01*
X3579Y2164D01*
X3559Y2144D01*
X3469Y2144D01*
X3459Y2154D01*
X3459Y2309D01*
G37*
G54D11*
X3459Y2309D02*
X3459Y2314D01*
X3469Y2324D01*
X3559Y2324D01*
X3579Y2304D01*
X3579Y2164D01*
X3559Y2144D01*
X3469Y2144D01*
X3459Y2154D01*
X3459Y2309D01*
G36*
X3155Y2289D02*
X3255Y2289D01*
X3255Y2179D01*
X3155Y2179D01*
X3155Y2289D01*
G37*
G36*
X3475Y2294D02*
X3575Y2294D01*
X3575Y2184D01*
X3475Y2184D01*
X3475Y2294D01*
G37*
G36*
X700Y2180D02*
X680Y2160D01*
X610Y2160D01*
X600Y2170D01*
X600Y2290D01*
X610Y2300D01*
X680Y2300D01*
X700Y2280D01*
X700Y2180D01*
G37*
G54D11*
X700Y2180D02*
X680Y2160D01*
X610Y2160D01*
X600Y2170D01*
X600Y2290D01*
X610Y2300D01*
X680Y2300D01*
X700Y2280D01*
X700Y2180D01*
G36*
X500Y2170D02*
X490Y2160D01*
X420Y2160D01*
X400Y2180D01*
X400Y2280D01*
X420Y2300D01*
X490Y2300D01*
X500Y2290D01*
X500Y2170D01*
G37*
G54D11*
X500Y2170D02*
X490Y2160D01*
X420Y2160D01*
X400Y2180D01*
X400Y2280D01*
X420Y2300D01*
X490Y2300D01*
X500Y2290D01*
X500Y2170D01*
G36*
X686Y2195D02*
X616Y2195D01*
X616Y2265D01*
X686Y2265D01*
X686Y2195D01*
G37*
G36*
X486Y2195D02*
X416Y2195D01*
X416Y2265D01*
X486Y2265D01*
X486Y2195D01*
G37*
M02*
