; Drill file
; Format: 3.3 (000.000)
M48
METRIC
T01C0.8
T02C3
%
G05
G90
T01
X7940Y8800
X7940Y11340
X14680Y11340
X14680Y8800
X14680Y6260
X29610Y6660
X34610Y6660
X39610Y6660
X44610Y6660
X44580Y13860
X39580Y13860
X34600Y18950
X29520Y18950
X22540Y25470
X19040Y25470
X13170Y31430
X10630Y31430
X8090Y31420
X8090Y39040
X10630Y39050
X13170Y39050
X10620Y46700
X8080Y46700
X30720Y38730
X33260Y38730
X35800Y38730
X34660Y28970
X29660Y28970
T02
X2780Y2930
X2780Y47300
X47310Y26500
M30
