%FSLAX32Y32*%
%MOMM*%
%LNBESTUECKUNG2*%
G71*
G01*
%ADD10C, 0.15*%
%ADD11C, 0.17*%
%ADD12C, 0.11*%
%ADD13C, 0.22*%
%ADD14C, 0.20*%
%ADD15C, 0.60*%
%ADD16C, 0.40*%
%LPD*%
G54D10*
G75*
G01X4239Y3646D02*
G03X4239Y3646I0J55D01*
G01*
G54D11*
X4491Y4295D02*
X4358Y4295D01*
X4358Y4345D01*
X4366Y4365D01*
X4383Y4375D01*
X4399Y4375D01*
X4416Y4365D01*
X4424Y4345D01*
X4424Y4295D01*
G54D11*
X4358Y4412D02*
X4491Y4412D01*
X4408Y4462D01*
X4491Y4512D01*
X4358Y4512D01*
G54D11*
X4491Y4549D02*
X4358Y4549D01*
X4441Y4599D01*
X4358Y4649D01*
X4491Y4649D01*
G54D11*
X4491Y4725D02*
X4358Y4725D01*
G54D11*
X4491Y4762D02*
X4358Y4762D01*
X4491Y4842D01*
X4358Y4842D01*
G54D11*
X3711Y4148D02*
X3711Y4188D01*
X3753Y4188D01*
X3769Y4178D01*
X3778Y4158D01*
X3778Y4138D01*
X3769Y4118D01*
X3753Y4108D01*
X3669Y4108D01*
X3653Y4118D01*
X3644Y4138D01*
X3644Y4158D01*
X3653Y4178D01*
X3669Y4188D01*
G54D11*
X3778Y4225D02*
X3644Y4225D01*
X3778Y4305D01*
X3644Y4305D01*
G54D11*
X3778Y4342D02*
X3644Y4342D01*
X3644Y4392D01*
X3653Y4412D01*
X3669Y4422D01*
X3753Y4422D01*
X3769Y4412D01*
X3778Y4392D01*
X3778Y4342D01*
G54D11*
X3778Y4498D02*
X3644Y4548D01*
X3778Y4598D01*
G54D11*
X3728Y4518D02*
X3728Y4578D01*
G54D11*
X3644Y4635D02*
X3778Y4685D01*
X3644Y4735D01*
G54D11*
X3711Y4812D02*
X3728Y4842D01*
X3744Y4852D01*
X3778Y4852D01*
G54D11*
X3778Y4772D02*
X3644Y4772D01*
X3644Y4822D01*
X3653Y4842D01*
X3669Y4852D01*
X3686Y4852D01*
X3703Y4842D01*
X3711Y4822D01*
X3711Y4772D01*
G54D12*
X3725Y589D02*
X3636Y589D01*
G54D12*
X3725Y613D02*
X3636Y613D01*
X3725Y667D01*
X3636Y667D01*
G54D12*
X3681Y803D02*
X3681Y830D01*
X3709Y830D01*
X3720Y823D01*
X3725Y810D01*
X3725Y796D01*
X3720Y783D01*
X3709Y776D01*
X3653Y776D01*
X3642Y783D01*
X3636Y796D01*
X3636Y810D01*
X3642Y823D01*
X3653Y830D01*
G54D12*
X3725Y853D02*
X3636Y853D01*
X3725Y907D01*
X3636Y907D01*
G54D12*
X3725Y930D02*
X3636Y930D01*
X3636Y964D01*
X3642Y977D01*
X3653Y984D01*
X3709Y984D01*
X3720Y977D01*
X3725Y964D01*
X3725Y930D01*
G54D12*
X3653Y1099D02*
X3709Y1099D01*
X3720Y1093D01*
X3725Y1079D01*
X3725Y1066D01*
X3720Y1053D01*
X3709Y1046D01*
X3653Y1046D01*
X3642Y1053D01*
X3636Y1066D01*
X3636Y1079D01*
X3642Y1093D01*
X3653Y1099D01*
G54D12*
X3636Y1123D02*
X3709Y1123D01*
X3720Y1130D01*
X3725Y1143D01*
X3725Y1156D01*
X3720Y1170D01*
X3709Y1176D01*
X3636Y1176D01*
G54D12*
X3725Y1227D02*
X3636Y1227D01*
G54D12*
X3636Y1200D02*
X3636Y1253D01*
G54D13*
X4445Y1161D02*
X4520Y1161D01*
G54D13*
X4483Y1192D02*
X4483Y1130D01*
G54D13*
X4564Y1184D02*
X4611Y1231D01*
X4611Y1106D01*
G54D13*
X4730Y1106D02*
X4655Y1106D01*
X4655Y1114D01*
X4665Y1130D01*
X4721Y1176D01*
X4730Y1192D01*
X4730Y1207D01*
X4721Y1223D01*
X4702Y1231D01*
X4683Y1231D01*
X4665Y1223D01*
X4655Y1207D01*
G54D13*
X4774Y1231D02*
X4821Y1106D01*
X4868Y1231D01*
G54D14*
X1800Y2747D02*
X1800Y3033D01*
G54D12*
X1712Y2739D02*
X1623Y2739D01*
X1623Y2786D01*
G54D12*
X1667Y2739D02*
X1667Y2786D01*
G54D12*
X1667Y2837D02*
X1678Y2857D01*
X1690Y2863D01*
X1712Y2863D01*
G54D12*
X1712Y2810D02*
X1623Y2810D01*
X1623Y2843D01*
X1628Y2857D01*
X1640Y2863D01*
X1651Y2863D01*
X1662Y2857D01*
X1667Y2843D01*
X1667Y2810D01*
G54D12*
X1656Y2887D02*
X1623Y2920D01*
X1712Y2920D01*
G54D12*
X1640Y2997D02*
X1695Y2997D01*
X1706Y2991D01*
X1712Y2977D01*
X1712Y2964D01*
X1706Y2951D01*
X1695Y2944D01*
X1640Y2944D01*
X1628Y2951D01*
X1623Y2964D01*
X1623Y2977D01*
X1628Y2991D01*
X1640Y2997D01*
G54D12*
X1623Y3021D02*
X1623Y3074D01*
X1634Y3068D01*
X1651Y3054D01*
X1673Y3041D01*
X1690Y3034D01*
X1712Y3034D01*
G54D13*
X396Y84D02*
X396Y262D01*
X463Y151D01*
X530Y262D01*
X530Y84D01*
G54D13*
X578Y162D02*
X685Y162D01*
G54D13*
X1405Y275D02*
X1471Y97D01*
X1538Y275D01*
G54D13*
X1587Y175D02*
X1693Y175D01*
G54D13*
X1640Y220D02*
X1640Y131D01*
G54D13*
X1896Y175D02*
X1950Y175D01*
X1950Y120D01*
X1936Y97D01*
X1910Y86D01*
X1883Y86D01*
X1856Y97D01*
X1843Y120D01*
X1843Y231D01*
X1856Y253D01*
X1883Y264D01*
X1910Y264D01*
X1936Y253D01*
X1950Y231D01*
G54D13*
X1999Y86D02*
X1999Y264D01*
X2106Y86D01*
X2106Y264D01*
G54D13*
X2155Y86D02*
X2155Y264D01*
X2222Y264D01*
X2248Y253D01*
X2262Y231D01*
X2262Y120D01*
X2248Y97D01*
X2222Y86D01*
X2155Y86D01*
G54D12*
X632Y1602D02*
X720Y1602D01*
G54D12*
X632Y1548D02*
X720Y1548D01*
G54D12*
X676Y1602D02*
X676Y1548D01*
G54D12*
X632Y1478D02*
X632Y1525D01*
X720Y1525D01*
X720Y1478D01*
G54D12*
X676Y1525D02*
X676Y1478D01*
G54D12*
X676Y1427D02*
X665Y1407D01*
X654Y1400D01*
X632Y1400D01*
G54D12*
X632Y1454D02*
X720Y1454D01*
X720Y1420D01*
X715Y1407D01*
X704Y1400D01*
X693Y1400D01*
X682Y1407D01*
X676Y1420D01*
X676Y1454D01*
G54D12*
X704Y1377D02*
X715Y1370D01*
X720Y1357D01*
X720Y1343D01*
X715Y1330D01*
X704Y1323D01*
X693Y1323D01*
X682Y1330D01*
X676Y1343D01*
X670Y1330D01*
X659Y1323D01*
X648Y1323D01*
X637Y1330D01*
X632Y1343D01*
X632Y1357D01*
X637Y1370D01*
X648Y1377D01*
G54D12*
X704Y1246D02*
X648Y1246D01*
X637Y1253D01*
X632Y1266D01*
X632Y1280D01*
X637Y1293D01*
X648Y1300D01*
X704Y1300D01*
X715Y1293D01*
X720Y1280D01*
X720Y1266D01*
X715Y1253D01*
X704Y1246D01*
G54D12*
X676Y1189D02*
X676Y1203D01*
X682Y1216D01*
X693Y1223D01*
X704Y1223D01*
X715Y1216D01*
X720Y1203D01*
X720Y1189D01*
X715Y1176D01*
X704Y1169D01*
X693Y1169D01*
X682Y1176D01*
X676Y1189D01*
X670Y1176D01*
X659Y1169D01*
X648Y1169D01*
X637Y1176D01*
X632Y1189D01*
X632Y1203D01*
X637Y1216D01*
X648Y1223D01*
X659Y1223D01*
X670Y1216D01*
X676Y1203D01*
G54D13*
X929Y91D02*
X929Y269D01*
X996Y158D01*
X1062Y269D01*
X1062Y91D01*
G54D13*
X1111Y169D02*
X1218Y169D01*
G54D13*
X1164Y214D02*
X1164Y125D01*
G54D15*
X3285Y523D02*
X3286Y1246D01*
G54D14*
G75*
G01X3321Y2547D02*
G03X3321Y2547I-400J0D01*
G01*
G54D14*
G75*
G01X1113Y1894D02*
G03X1113Y1894I680J0D01*
G01*
G54D14*
X1800Y2889D02*
X1942Y3031D01*
X1942Y2746D01*
X1800Y2889D01*
G54D14*
X948Y1523D02*
X948Y1238D01*
G54D14*
X948Y1382D02*
X805Y1239D01*
X805Y1525D01*
X948Y1382D01*
G54D13*
X3683Y2153D02*
X3683Y2331D01*
X3750Y2331D01*
X3777Y2320D01*
X3790Y2298D01*
X3790Y2276D01*
X3777Y2253D01*
X3750Y2242D01*
X3777Y2231D01*
X3790Y2209D01*
X3790Y2187D01*
X3777Y2165D01*
X3750Y2153D01*
X3683Y2153D01*
G54D13*
X3683Y2242D02*
X3750Y2242D01*
G54D13*
X3946Y2298D02*
X3946Y2187D01*
X3933Y2165D01*
X3906Y2153D01*
X3879Y2153D01*
X3853Y2165D01*
X3839Y2187D01*
X3839Y2298D01*
X3853Y2320D01*
X3879Y2331D01*
X3906Y2331D01*
X3933Y2320D01*
X3946Y2298D01*
G54D13*
X3995Y2153D02*
X3995Y2331D01*
X4062Y2331D01*
X4089Y2320D01*
X4102Y2298D01*
X4102Y2276D01*
X4089Y2253D01*
X4062Y2242D01*
X4089Y2231D01*
X4102Y2209D01*
X4102Y2187D01*
X4089Y2165D01*
X4062Y2153D01*
X3995Y2153D01*
G54D13*
X3995Y2242D02*
X4062Y2242D01*
G54D13*
X4310Y2153D02*
X4203Y2153D01*
X4203Y2165D01*
X4217Y2187D01*
X4297Y2253D01*
X4310Y2276D01*
X4310Y2298D01*
X4297Y2320D01*
X4270Y2331D01*
X4243Y2331D01*
X4217Y2320D01*
X4203Y2298D01*
G54D13*
X4466Y2298D02*
X4466Y2187D01*
X4453Y2165D01*
X4426Y2153D01*
X4399Y2153D01*
X4373Y2165D01*
X4359Y2187D01*
X4359Y2298D01*
X4373Y2320D01*
X4399Y2331D01*
X4426Y2331D01*
X4453Y2320D01*
X4466Y2298D01*
G54D13*
X4515Y2265D02*
X4582Y2331D01*
X4582Y2153D01*
G54D13*
X4631Y2331D02*
X4738Y2331D01*
X4725Y2309D01*
X4698Y2276D01*
X4671Y2231D01*
X4658Y2198D01*
X4658Y2153D01*
G54D13*
X3592Y2503D02*
X3592Y2680D01*
X3659Y2680D01*
X3685Y2669D01*
X3699Y2647D01*
X3699Y2536D01*
X3685Y2514D01*
X3659Y2503D01*
X3592Y2503D01*
G54D13*
X3855Y2536D02*
X3841Y2514D01*
X3815Y2503D01*
X3788Y2503D01*
X3761Y2514D01*
X3748Y2536D01*
X3748Y2647D01*
X3761Y2669D01*
X3788Y2680D01*
X3815Y2680D01*
X3841Y2669D01*
X3855Y2647D01*
G54D13*
X3904Y2503D02*
X3904Y2680D01*
X3971Y2680D01*
X3997Y2669D01*
X4011Y2647D01*
X4011Y2536D01*
X3997Y2514D01*
X3971Y2503D01*
X3904Y2503D01*
G54D13*
X4113Y2592D02*
X4153Y2569D01*
X4167Y2547D01*
X4167Y2503D01*
G54D13*
X4060Y2503D02*
X4060Y2680D01*
X4127Y2680D01*
X4153Y2669D01*
X4167Y2647D01*
X4167Y2625D01*
X4153Y2603D01*
X4127Y2592D01*
X4060Y2592D01*
G54D13*
X4216Y2680D02*
X4283Y2503D01*
X4349Y2680D01*
G54D13*
X4398Y2614D02*
X4465Y2680D01*
X4465Y2503D01*
G54D13*
X4566Y2603D02*
X4619Y2503D01*
X4673Y2603D01*
G54D13*
X4722Y2503D02*
X4722Y2503D01*
G54D13*
X4771Y2614D02*
X4838Y2680D01*
X4838Y2503D01*
G54D14*
X2587Y2769D02*
X2587Y2333D01*
G54D14*
X2397Y2198D02*
X2397Y1594D01*
G54D13*
X4512Y882D02*
X4549Y882D01*
X4549Y843D01*
X4540Y828D01*
X4521Y820D01*
X4503Y820D01*
X4484Y828D01*
X4475Y843D01*
X4475Y921D01*
X4484Y937D01*
X4503Y944D01*
X4521Y944D01*
X4540Y937D01*
X4549Y921D01*
G54D13*
X4594Y820D02*
X4594Y944D01*
X4668Y820D01*
X4668Y944D01*
G54D13*
X4713Y820D02*
X4713Y944D01*
X4759Y944D01*
X4778Y937D01*
X4787Y921D01*
X4787Y843D01*
X4778Y828D01*
X4759Y820D01*
X4713Y820D01*
G54D16*
X2119Y4095D02*
X1230Y4095D01*
M02*
