%FSLAX34Y34*%
%MOMM*%
%LNSILK_BOTTOM*%
G71*
G01*
%ADD10C, 0.300*%
%ADD11C, 0.170*%
%ADD12C, 0.220*%
%ADD13C, 0.600*%
%ADD14C, 0.400*%
%LPD*%
G54D10*
G75*
G01X90880Y-135319D02*
G03X90880Y-135319I-10000J0D01*
G01*
G54D11*
X50911Y-70457D02*
X64244Y-70457D01*
X64244Y-65457D01*
X63411Y-63457D01*
X61744Y-62457D01*
X60077Y-62457D01*
X58411Y-63457D01*
X57577Y-65457D01*
X57577Y-70457D01*
G54D11*
X64244Y-58757D02*
X50911Y-58757D01*
X59244Y-53757D01*
X50911Y-48757D01*
X64244Y-48757D01*
G54D11*
X50911Y-45057D02*
X64244Y-45057D01*
X55911Y-40057D01*
X64244Y-35057D01*
X50911Y-35057D01*
G54D11*
X50911Y-27457D02*
X64244Y-27457D01*
G54D11*
X50911Y-23757D02*
X64244Y-23757D01*
X50911Y-15757D01*
X64244Y-15757D01*
G54D11*
X128902Y-85201D02*
X128902Y-81201D01*
X124736Y-81201D01*
X123069Y-82201D01*
X122236Y-84201D01*
X122236Y-86201D01*
X123069Y-88201D01*
X124736Y-89201D01*
X133069Y-89201D01*
X134736Y-88201D01*
X135569Y-86201D01*
X135569Y-84201D01*
X134736Y-82201D01*
X133069Y-81201D01*
G54D11*
X122236Y-77501D02*
X135569Y-77501D01*
X122236Y-69501D01*
X135569Y-69501D01*
G54D11*
X122236Y-65801D02*
X135569Y-65801D01*
X135569Y-60801D01*
X134736Y-58801D01*
X133069Y-57801D01*
X124736Y-57801D01*
X123069Y-58801D01*
X122236Y-60801D01*
X122236Y-65801D01*
G54D11*
X122236Y-50201D02*
X135569Y-45201D01*
X122236Y-40201D01*
G54D11*
X127236Y-48201D02*
X127236Y-42201D01*
G54D11*
X135569Y-36501D02*
X122236Y-31501D01*
X135569Y-26501D01*
G54D11*
X128902Y-18801D02*
X127236Y-15801D01*
X125569Y-14801D01*
X122236Y-14801D01*
G54D11*
X122236Y-22801D02*
X135569Y-22801D01*
X135569Y-17801D01*
X134736Y-15801D01*
X133069Y-14801D01*
X131402Y-14801D01*
X129736Y-15801D01*
X128902Y-17801D01*
X128902Y-22801D01*
G54D12*
X55483Y-383898D02*
X48016Y-383898D01*
G54D12*
X51749Y-380787D02*
X51749Y-387010D01*
G54D12*
X43583Y-381565D02*
X38916Y-376898D01*
X38916Y-389343D01*
G54D12*
X27016Y-389343D02*
X34483Y-389343D01*
X34483Y-388565D01*
X33549Y-387010D01*
X27949Y-382343D01*
X27016Y-380787D01*
X27016Y-379232D01*
X27949Y-377676D01*
X29816Y-376898D01*
X31683Y-376898D01*
X33549Y-377676D01*
X34483Y-379232D01*
G54D12*
X22583Y-376898D02*
X17916Y-389343D01*
X13249Y-376898D01*
G54D10*
X328795Y-224440D02*
X328795Y-195865D01*
G54D12*
X460370Y-491520D02*
X460370Y-473742D01*
X453703Y-484853D01*
X447037Y-473742D01*
X447037Y-491520D01*
G54D12*
X442170Y-483742D02*
X431503Y-483742D01*
G54D12*
X359562Y-472457D02*
X352896Y-490234D01*
X346229Y-472456D01*
G54D12*
X341362Y-482456D02*
X330696Y-482457D01*
G54D12*
X336029Y-478012D02*
X336029Y-486901D01*
G54D12*
X310378Y-482455D02*
X305045Y-482455D01*
X305045Y-488010D01*
X306378Y-490232D01*
X309045Y-491344D01*
X311711Y-491344D01*
X314378Y-490232D01*
X315711Y-488010D01*
X315711Y-476899D01*
X314378Y-474677D01*
X311711Y-473566D01*
X309045Y-473566D01*
X306378Y-474677D01*
X305045Y-476899D01*
G54D12*
X300111Y-491344D02*
X300111Y-473566D01*
X289445Y-491344D01*
X289445Y-473566D01*
G54D12*
X284511Y-491344D02*
X284511Y-473566D01*
X277845Y-473566D01*
X275178Y-474677D01*
X273845Y-476899D01*
X273845Y-488010D01*
X275178Y-490232D01*
X277845Y-491344D01*
X284511Y-491344D01*
G54D12*
X407108Y-490820D02*
X407108Y-473042D01*
X400441Y-484153D01*
X393774Y-473042D01*
X393774Y-490820D01*
G54D12*
X388908Y-483042D02*
X378241Y-483042D01*
G54D12*
X383574Y-478598D02*
X383574Y-487486D01*
G54D10*
X269099Y-389694D02*
X473887Y-389694D01*
G54D10*
X371493Y-389694D02*
X371493Y-464307D01*
G54D10*
X269099Y-389694D02*
X269099Y-465894D01*
G54D10*
X473887Y-389694D02*
X473887Y-465894D01*
G54D10*
X473887Y-465894D02*
X269099Y-465894D01*
G54D13*
X171468Y-447638D02*
X171468Y-375407D01*
G54D10*
G75*
G01X247943Y-245232D02*
G03X247943Y-245232I-40000J0D01*
G01*
G54D10*
G75*
G01X388718Y-310513D02*
G03X388718Y-310513I-68000J0D01*
G01*
G54D10*
X328795Y-210315D02*
X314507Y-196027D01*
X314507Y-224602D01*
X328795Y-210315D01*
G54D10*
X413176Y-346830D02*
X413176Y-375405D01*
G54D10*
X413176Y-360955D02*
X427464Y-375242D01*
X427464Y-346667D01*
X413176Y-360955D01*
G54D12*
X131699Y-284619D02*
X131699Y-266842D01*
X125033Y-266842D01*
X122366Y-267953D01*
X121033Y-270175D01*
X121033Y-272397D01*
X122366Y-274619D01*
X125033Y-275730D01*
X122366Y-276842D01*
X121033Y-279064D01*
X121033Y-281286D01*
X122366Y-283508D01*
X125033Y-284619D01*
X131699Y-284619D01*
G54D12*
X131699Y-275730D02*
X125033Y-275730D01*
G54D12*
X105433Y-270175D02*
X105433Y-281286D01*
X106766Y-283508D01*
X109433Y-284619D01*
X112099Y-284619D01*
X114766Y-283508D01*
X116099Y-281286D01*
X116099Y-270175D01*
X114766Y-267953D01*
X112099Y-266842D01*
X109433Y-266842D01*
X106766Y-267953D01*
X105433Y-270175D01*
G54D12*
X100499Y-284619D02*
X100499Y-266842D01*
X93833Y-266842D01*
X91166Y-267953D01*
X89833Y-270175D01*
X89833Y-272397D01*
X91166Y-274619D01*
X93833Y-275730D01*
X91166Y-276842D01*
X89833Y-279064D01*
X89833Y-281286D01*
X91166Y-283508D01*
X93833Y-284619D01*
X100499Y-284619D01*
G54D12*
X100499Y-275730D02*
X93833Y-275730D01*
G54D12*
X69033Y-284619D02*
X79699Y-284619D01*
X79699Y-283508D01*
X78366Y-281286D01*
X70366Y-274619D01*
X69033Y-272397D01*
X69033Y-270175D01*
X70366Y-267953D01*
X73033Y-266842D01*
X75699Y-266842D01*
X78366Y-267953D01*
X79699Y-270175D01*
G54D12*
X53433Y-270175D02*
X53433Y-281286D01*
X54766Y-283508D01*
X57433Y-284619D01*
X60099Y-284619D01*
X62766Y-283508D01*
X64099Y-281286D01*
X64099Y-270175D01*
X62766Y-267953D01*
X60099Y-266842D01*
X57433Y-266842D01*
X54766Y-267953D01*
X53433Y-270175D01*
G54D12*
X48499Y-273508D02*
X41833Y-266842D01*
X41833Y-284619D01*
G54D12*
X36899Y-266842D02*
X26233Y-266842D01*
X27566Y-269064D01*
X30233Y-272397D01*
X32899Y-276842D01*
X34233Y-280175D01*
X34233Y-284619D01*
G54D12*
X140812Y-249694D02*
X140812Y-231916D01*
X134145Y-231916D01*
X131478Y-233028D01*
X130145Y-235250D01*
X130145Y-246361D01*
X131478Y-248583D01*
X134145Y-249694D01*
X140812Y-249694D01*
G54D12*
X114545Y-246361D02*
X115878Y-248583D01*
X118545Y-249694D01*
X121212Y-249694D01*
X123878Y-248583D01*
X125212Y-246361D01*
X125212Y-235250D01*
X123878Y-233028D01*
X121212Y-231916D01*
X118545Y-231916D01*
X115878Y-233028D01*
X114545Y-235250D01*
G54D12*
X109612Y-249694D02*
X109612Y-231916D01*
X102945Y-231916D01*
X100278Y-233028D01*
X98945Y-235250D01*
X98945Y-246361D01*
X100278Y-248583D01*
X102945Y-249694D01*
X109612Y-249694D01*
G54D12*
X88678Y-240805D02*
X84678Y-243028D01*
X83345Y-245250D01*
X83345Y-249694D01*
G54D12*
X94012Y-249694D02*
X94012Y-231916D01*
X87345Y-231916D01*
X84678Y-233028D01*
X83345Y-235250D01*
X83345Y-237472D01*
X84678Y-239694D01*
X87345Y-240805D01*
X94012Y-240805D01*
G54D12*
X78412Y-231916D02*
X71745Y-249694D01*
X65078Y-231916D01*
G54D12*
X60212Y-238583D02*
X53545Y-231916D01*
X53545Y-249694D01*
G54D12*
X43412Y-239694D02*
X38078Y-249694D01*
X32745Y-239694D01*
G54D12*
X27812Y-249694D02*
X27812Y-249694D01*
G54D12*
X22912Y-238583D02*
X16245Y-231916D01*
X16245Y-249694D01*
G54D10*
X241299Y-223044D02*
X241299Y-266700D01*
G54D10*
X260349Y-280194D02*
X260349Y-340519D01*
G54D12*
X48830Y-411746D02*
X45097Y-411746D01*
X45097Y-415635D01*
X46030Y-417190D01*
X47897Y-417968D01*
X49764Y-417968D01*
X51630Y-417190D01*
X52564Y-415635D01*
X52564Y-407857D01*
X51630Y-406301D01*
X49764Y-405524D01*
X47897Y-405524D01*
X46030Y-406301D01*
X45097Y-407857D01*
G54D12*
X40664Y-417968D02*
X40664Y-405524D01*
X33197Y-417968D01*
X33197Y-405524D01*
G54D12*
X28764Y-417968D02*
X28764Y-405524D01*
X24097Y-405524D01*
X22230Y-406301D01*
X21297Y-407857D01*
X21297Y-415635D01*
X22230Y-417190D01*
X24097Y-417968D01*
X28764Y-417968D01*
G54D14*
X288130Y-90488D02*
X377030Y-90488D01*
M02*
