; Drill file
; Format: 3.3 (000.000)
M48
METRIC
T01C0.8
T02C3.0
%
G05
G90
T01
X007940Y-041190
X007940Y-038650
X014690Y-038650
X014690Y-041190
X014690Y-043730
X029610Y-043340
X034610Y-043340
X039610Y-043340
X044610Y-043340
X044580Y-036140
X039580Y-036140
X034600Y-031050
X029520Y-031050
X022540Y-024520
X019040Y-024520
X013180Y-018570
X010640Y-018570
X008100Y-018570
X008100Y-010950
X010640Y-010950
X013180Y-010950
X010630Y-003300
X008090Y-003300
X030720Y-011270
X033260Y-011270
X035800Y-011270
X034670Y-021020
X029660Y-021020
T02
X002940Y-046990
X002940Y-002930
X046910Y-024920
M30
