; Drill file
; Format: 2.4 (00.0000)
M48
INCH
T01C0.0315
T02C0.1181
%
G05
G90
T01
X003130Y-016220
X003130Y-015220
X005780Y-015220
X005780Y-016220
X005780Y-017220
X011660Y-017060
X013630Y-017060
X015590Y-017060
X017560Y-017060
X017550Y-014230
X015580Y-014230
X013620Y-012220
X011620Y-012220
X008880Y-009650
X007500Y-009650
X005190Y-007310
X004190Y-007310
X003190Y-007310
X003190Y-004310
X004190Y-004310
X005190Y-004310
X004180Y-001300
X003180Y-001300
X012090Y-004440
X013090Y-004440
X014090Y-004440
X013650Y-008280
X011680Y-008280
T02
X001160Y-018500
X001160Y-001150
X018470Y-009810
M30
