%FSLAX32Y32*%
%MOMM*%
%LNLOETSTOP1*%
G71*
G01*
%ADD10C, 2.00*%
%ADD11C, 2.60*%
%ADD12C, 2.60*%
%ADD13C, 3.04*%
%ADD14C, 2.40*%
%ADD15C, 0.20*%
%LPD*%
G54D10*
X809Y3974D02*
X809Y3834D01*
G54D10*
X1063Y3975D02*
X1063Y3835D01*
G54D10*
X1317Y3975D02*
X1317Y3835D01*
G54D10*
X1317Y3213D02*
X1317Y3073D01*
G54D10*
X1063Y3213D02*
X1063Y3073D01*
G54D10*
X809Y3212D02*
X809Y3072D01*
G36*
X2138Y3015D02*
X2138Y3095D01*
X2258Y3095D01*
X2258Y3015D01*
X2138Y3015D01*
G37*
G36*
X2138Y3205D02*
X2138Y3285D01*
X2258Y3285D01*
X2258Y3205D01*
X2138Y3205D01*
G37*
G36*
X2376Y3015D02*
X2376Y3095D01*
X2496Y3095D01*
X2496Y3015D01*
X2376Y3015D01*
G37*
G36*
X2376Y3205D02*
X2376Y3285D01*
X2496Y3285D01*
X2496Y3205D01*
X2376Y3205D01*
G37*
G36*
X2376Y3110D02*
X2376Y3190D01*
X2496Y3190D01*
X2496Y3110D01*
X2376Y3110D01*
G37*
G54D11*
X1368Y1134D02*
X1568Y1134D01*
G54D11*
X1368Y880D02*
X1568Y880D01*
G54D11*
X1368Y626D02*
X1568Y626D01*
X3072Y3873D02*
G54D12*
D03*
X3326Y3873D02*
G54D12*
D03*
X3580Y3873D02*
G54D12*
D03*
X3466Y2897D02*
G54D12*
D03*
X2966Y2897D02*
G54D12*
D03*
X2961Y666D02*
G54D13*
D03*
X3461Y666D02*
G54D13*
D03*
X3961Y666D02*
G54D13*
D03*
X4461Y666D02*
G54D13*
D03*
G54D14*
X1062Y4580D02*
X1062Y4760D01*
G54D14*
X808Y4580D02*
X808Y4760D01*
G36*
X2374Y3400D02*
X2354Y3420D01*
X2354Y3510D01*
X2364Y3520D01*
X2524Y3520D01*
X2534Y3510D01*
X2534Y3420D01*
X2514Y3400D01*
X2374Y3400D01*
G37*
G54D15*
X2374Y3400D02*
X2354Y3420D01*
X2354Y3510D01*
X2364Y3520D01*
X2524Y3520D01*
X2534Y3510D01*
X2534Y3420D01*
X2514Y3400D01*
X2374Y3400D01*
G36*
X2369Y3710D02*
X2364Y3710D01*
X2354Y3720D01*
X2354Y3810D01*
X2374Y3830D01*
X2514Y3830D01*
X2534Y3810D01*
X2534Y3720D01*
X2524Y3710D01*
X2369Y3710D01*
G37*
G54D15*
X2369Y3710D02*
X2364Y3710D01*
X2354Y3720D01*
X2354Y3810D01*
X2374Y3830D01*
X2514Y3830D01*
X2534Y3810D01*
X2534Y3720D01*
X2524Y3710D01*
X2369Y3710D01*
G36*
X2389Y3405D02*
X2389Y3505D01*
X2499Y3505D01*
X2499Y3405D01*
X2389Y3405D01*
G37*
G36*
X2384Y3725D02*
X2384Y3825D01*
X2494Y3825D01*
X2494Y3725D01*
X2384Y3725D01*
G37*
G36*
X758Y4119D02*
X738Y4139D01*
X738Y4209D01*
X748Y4219D01*
X868Y4219D01*
X878Y4209D01*
X878Y4139D01*
X858Y4119D01*
X758Y4119D01*
G37*
G54D15*
X758Y4119D02*
X738Y4139D01*
X738Y4209D01*
X748Y4219D01*
X868Y4219D01*
X878Y4209D01*
X878Y4139D01*
X858Y4119D01*
X758Y4119D01*
G36*
X748Y4319D02*
X738Y4329D01*
X738Y4399D01*
X758Y4419D01*
X858Y4419D01*
X878Y4399D01*
X878Y4329D01*
X868Y4319D01*
X748Y4319D01*
G37*
G54D15*
X748Y4319D02*
X738Y4329D01*
X738Y4399D01*
X758Y4419D01*
X858Y4419D01*
X878Y4399D01*
X878Y4329D01*
X868Y4319D01*
X748Y4319D01*
G36*
X773Y4135D02*
X773Y4205D01*
X843Y4205D01*
X843Y4135D01*
X773Y4135D01*
G37*
G36*
X773Y4335D02*
X773Y4405D01*
X843Y4405D01*
X843Y4335D01*
X773Y4335D01*
G37*
G36*
X1089Y2768D02*
X1069Y2748D01*
X999Y2748D01*
X989Y2758D01*
X989Y2878D01*
X999Y2888D01*
X1069Y2888D01*
X1089Y2868D01*
X1089Y2768D01*
G37*
G54D15*
X1089Y2768D02*
X1069Y2748D01*
X999Y2748D01*
X989Y2758D01*
X989Y2878D01*
X999Y2888D01*
X1069Y2888D01*
X1089Y2868D01*
X1089Y2768D01*
G36*
X889Y2758D02*
X879Y2748D01*
X809Y2748D01*
X789Y2768D01*
X789Y2868D01*
X809Y2888D01*
X879Y2888D01*
X889Y2878D01*
X889Y2758D01*
G37*
G54D15*
X889Y2758D02*
X879Y2748D01*
X809Y2748D01*
X789Y2768D01*
X789Y2868D01*
X809Y2888D01*
X879Y2888D01*
X889Y2878D01*
X889Y2758D01*
G36*
X1075Y2782D02*
X1005Y2782D01*
X1005Y2852D01*
X1075Y2852D01*
X1075Y2782D01*
G37*
G36*
X875Y2782D02*
X805Y2782D01*
X805Y2852D01*
X875Y2852D01*
X875Y2782D01*
G37*
G36*
X1267Y2536D02*
X1247Y2556D01*
X1247Y2626D01*
X1257Y2636D01*
X1377Y2636D01*
X1387Y2626D01*
X1387Y2556D01*
X1367Y2536D01*
X1267Y2536D01*
G37*
G54D15*
X1267Y2536D02*
X1247Y2556D01*
X1247Y2626D01*
X1257Y2636D01*
X1377Y2636D01*
X1387Y2626D01*
X1387Y2556D01*
X1367Y2536D01*
X1267Y2536D01*
G36*
X1257Y2736D02*
X1247Y2746D01*
X1247Y2816D01*
X1267Y2836D01*
X1367Y2836D01*
X1387Y2816D01*
X1387Y2746D01*
X1377Y2736D01*
X1257Y2736D01*
G37*
G54D15*
X1257Y2736D02*
X1247Y2746D01*
X1247Y2816D01*
X1267Y2836D01*
X1367Y2836D01*
X1387Y2816D01*
X1387Y2746D01*
X1377Y2736D01*
X1257Y2736D01*
G36*
X1282Y2552D02*
X1282Y2622D01*
X1352Y2622D01*
X1352Y2552D01*
X1282Y2552D01*
G37*
G36*
X1282Y2752D02*
X1282Y2822D01*
X1352Y2822D01*
X1352Y2752D01*
X1282Y2752D01*
G37*
X2254Y2547D02*
G54D12*
D03*
X1904Y2547D02*
G54D12*
D03*
X2952Y1895D02*
G54D13*
D03*
X3460Y1895D02*
G54D13*
D03*
X4458Y1386D02*
G54D12*
D03*
X3958Y1386D02*
G54D12*
D03*
G36*
X2120Y3401D02*
X2100Y3421D01*
X2100Y3511D01*
X2110Y3521D01*
X2270Y3521D01*
X2280Y3511D01*
X2280Y3421D01*
X2260Y3401D01*
X2120Y3401D01*
G37*
G54D15*
X2120Y3401D02*
X2100Y3421D01*
X2100Y3511D01*
X2110Y3521D01*
X2270Y3521D01*
X2280Y3511D01*
X2280Y3421D01*
X2260Y3401D01*
X2120Y3401D01*
G36*
X2115Y3711D02*
X2110Y3711D01*
X2100Y3721D01*
X2100Y3811D01*
X2120Y3831D01*
X2260Y3831D01*
X2280Y3811D01*
X2280Y3721D01*
X2270Y3711D01*
X2115Y3711D01*
G37*
G54D15*
X2115Y3711D02*
X2110Y3711D01*
X2100Y3721D01*
X2100Y3811D01*
X2120Y3831D01*
X2260Y3831D01*
X2280Y3811D01*
X2280Y3721D01*
X2270Y3711D01*
X2115Y3711D01*
G36*
X2135Y3405D02*
X2135Y3505D01*
X2245Y3505D01*
X2245Y3405D01*
X2135Y3405D01*
G37*
G36*
X2130Y3725D02*
X2130Y3825D01*
X2240Y3825D01*
X2240Y3725D01*
X2130Y3725D01*
G37*
G54D14*
X884Y880D02*
X704Y880D01*
G54D14*
X884Y1134D02*
X704Y1134D01*
G36*
X2255Y368D02*
X2235Y388D01*
X2235Y478D01*
X2245Y488D01*
X2405Y488D01*
X2415Y478D01*
X2415Y388D01*
X2395Y368D01*
X2255Y368D01*
G37*
G54D15*
X2255Y368D02*
X2235Y388D01*
X2235Y478D01*
X2245Y488D01*
X2405Y488D01*
X2415Y478D01*
X2415Y388D01*
X2395Y368D01*
X2255Y368D01*
G36*
X2250Y678D02*
X2245Y678D01*
X2235Y688D01*
X2235Y778D01*
X2255Y798D01*
X2395Y798D01*
X2415Y778D01*
X2415Y688D01*
X2405Y678D01*
X2250Y678D01*
G37*
G54D15*
X2250Y678D02*
X2245Y678D01*
X2235Y688D01*
X2235Y778D01*
X2255Y798D01*
X2395Y798D01*
X2415Y778D01*
X2415Y688D01*
X2405Y678D01*
X2250Y678D01*
G36*
X2270Y373D02*
X2270Y473D01*
X2380Y473D01*
X2380Y373D01*
X2270Y373D01*
G37*
G36*
X2265Y693D02*
X2265Y793D01*
X2375Y793D01*
X2375Y693D01*
X2265Y693D01*
G37*
G36*
X2595Y2117D02*
X2575Y2097D01*
X2485Y2097D01*
X2475Y2107D01*
X2475Y2267D01*
X2485Y2277D01*
X2575Y2277D01*
X2595Y2257D01*
X2595Y2117D01*
G37*
G54D15*
X2595Y2117D02*
X2575Y2097D01*
X2485Y2097D01*
X2475Y2107D01*
X2475Y2267D01*
X2485Y2277D01*
X2575Y2277D01*
X2595Y2257D01*
X2595Y2117D01*
G36*
X2285Y2112D02*
X2285Y2107D01*
X2275Y2097D01*
X2185Y2097D01*
X2165Y2117D01*
X2165Y2257D01*
X2185Y2277D01*
X2275Y2277D01*
X2285Y2267D01*
X2285Y2112D01*
G37*
G54D15*
X2285Y2112D02*
X2285Y2107D01*
X2275Y2097D01*
X2185Y2097D01*
X2165Y2117D01*
X2165Y2257D01*
X2185Y2277D01*
X2275Y2277D01*
X2285Y2267D01*
X2285Y2112D01*
G36*
X2591Y2132D02*
X2491Y2132D01*
X2491Y2242D01*
X2591Y2242D01*
X2591Y2132D01*
G37*
G36*
X2271Y2127D02*
X2171Y2127D01*
X2171Y2237D01*
X2271Y2237D01*
X2271Y2127D01*
G37*
G36*
X3149Y2304D02*
X3169Y2324D01*
X3259Y2324D01*
X3269Y2314D01*
X3269Y2154D01*
X3259Y2144D01*
X3169Y2144D01*
X3149Y2164D01*
X3149Y2304D01*
G37*
G54D15*
X3149Y2304D02*
X3169Y2324D01*
X3259Y2324D01*
X3269Y2314D01*
X3269Y2154D01*
X3259Y2144D01*
X3169Y2144D01*
X3149Y2164D01*
X3149Y2304D01*
G36*
X3459Y2309D02*
X3459Y2314D01*
X3469Y2324D01*
X3559Y2324D01*
X3579Y2304D01*
X3579Y2164D01*
X3559Y2144D01*
X3469Y2144D01*
X3459Y2154D01*
X3459Y2309D01*
G37*
G54D15*
X3459Y2309D02*
X3459Y2314D01*
X3469Y2324D01*
X3559Y2324D01*
X3579Y2304D01*
X3579Y2164D01*
X3559Y2144D01*
X3469Y2144D01*
X3459Y2154D01*
X3459Y2309D01*
G36*
X3155Y2289D02*
X3255Y2289D01*
X3255Y2179D01*
X3155Y2179D01*
X3155Y2289D01*
G37*
G36*
X3475Y2294D02*
X3575Y2294D01*
X3575Y2184D01*
X3475Y2184D01*
X3475Y2294D01*
G37*
M02*
